<svg width="12" height="14" viewBox="0 0 12 14" fill="none" xmlns="http://www.w3.org/2000/svg">
<path d="M1.20078 12.4H8.40078V5.99995H1.20078V12.4ZM4.80078 10.4C5.13411 10.4 5.41745 10.2833 5.65078 10.05C5.88412 9.81662 6.00078 9.53328 6.00078 9.19995C6.00078 8.86662 5.88412 8.58328 5.65078 8.34995C5.41745 8.11662 5.13411 7.99995 4.80078 7.99995C4.46745 7.99995 4.18412 8.11662 3.95078 8.34995C3.71745 8.58328 3.60078 8.86662 3.60078 9.19995C3.60078 9.53328 3.71745 9.81662 3.95078 10.05C4.18412 10.2833 4.46745 10.4 4.80078 10.4ZM1.20078 12.4V5.99995V12.4ZM1.20078 13.6C0.867448 13.6 0.584115 13.4833 0.350781 13.25C0.117448 13.0166 0.000781536 12.7333 0.000781536 12.4V5.99995C0.000781536 5.66662 0.117448 5.38328 0.350781 5.14995C0.584115 4.91662 0.867448 4.79995 1.20078 4.79995H5.60078V3.19995C5.60078 2.31106 5.91189 1.55551 6.53411 0.933284C7.15634 0.311062 7.91189 -4.95911e-05 8.80078 -4.95911e-05C9.68967 -4.95911e-05 10.4452 0.311062 11.0674 0.933284C11.6897 1.55551 12.0008 2.31106 12.0008 3.19995H10.8008C10.8008 2.64439 10.6063 2.17217 10.2174 1.78328C9.82856 1.39439 9.35634 1.19995 8.80078 1.19995C8.24523 1.19995 7.773 1.39439 7.38412 1.78328C6.99523 2.17217 6.80078 2.64439 6.80078 3.19995V4.79995H8.40078C8.73411 4.79995 9.01745 4.91662 9.25078 5.14995C9.48412 5.38328 9.60078 5.66662 9.60078 5.99995V12.4C9.60078 12.7333 9.48412 13.0166 9.25078 13.25C9.01745 13.4833 8.73411 13.6 8.40078 13.6H1.20078Z" fill="#C4C7C5"/>
</svg>
