<svg width="15" height="13" viewBox="0 0 15 13" fill="none" xmlns="http://www.w3.org/2000/svg">
<path d="M9.81589 6.58341L8.78255 5.55008C8.827 5.12786 8.69922 4.76675 8.39922 4.46675C8.09922 4.15564 7.73811 4.0223 7.31589 4.06675L6.28255 3.03341C6.427 2.97786 6.577 2.93897 6.73255 2.91675C6.88811 2.88341 7.04366 2.86675 7.19922 2.86675C7.977 2.86675 8.63811 3.13897 9.18255 3.68341C9.727 4.22786 9.99922 4.88897 9.99922 5.66675C9.99922 5.8223 9.98255 5.97786 9.94922 6.13341C9.927 6.28897 9.88255 6.43897 9.81589 6.58341ZM12.0326 8.80008L11.1659 7.93341C11.5659 7.6223 11.927 7.28341 12.2492 6.91675C12.5826 6.53897 12.8603 6.1223 13.0826 5.66675C12.5381 4.54453 11.7326 3.66675 10.6659 3.03341C9.61033 2.38897 8.45477 2.06675 7.19922 2.06675C6.91033 2.06675 6.627 2.08341 6.34922 2.11675C6.07144 2.15008 5.79922 2.20564 5.53255 2.28341L4.56589 1.31675C4.98811 1.15008 5.41589 1.03341 5.84922 0.966747C6.29366 0.90008 6.74366 0.866747 7.19922 0.866747C8.78811 0.866747 10.2381 1.30008 11.5492 2.16675C12.8714 3.0223 13.8214 4.18897 14.3992 5.66675C14.1548 6.30008 13.827 6.87786 13.4159 7.40008C13.0159 7.91119 12.5548 8.37786 12.0326 8.80008ZM11.9992 12.1667L9.83255 10.0001C9.41033 10.1556 8.977 10.2723 8.53255 10.3501C8.09922 10.4279 7.65477 10.4667 7.19922 10.4667C5.61033 10.4667 4.15477 10.039 2.83255 9.18341C1.52144 8.31675 0.576997 7.14453 -0.000781178 5.66675C0.243663 5.03341 0.565886 4.45564 0.965886 3.93341C1.36589 3.41119 1.83255 2.93897 2.36589 2.51675L0.699219 0.85008L1.54922 8.10623e-05L12.8492 11.3167L11.9992 12.1667ZM3.21589 3.38341C2.827 3.69453 2.46589 4.03897 2.13255 4.41675C1.79922 4.78341 1.527 5.20008 1.31589 5.66675C1.86033 6.78897 2.66033 7.6723 3.71589 8.31675C4.78255 8.95008 5.94366 9.26675 7.19922 9.26675C7.48811 9.26675 7.77144 9.25008 8.04922 9.21675C8.327 9.1723 8.60477 9.11675 8.88255 9.05008L8.13255 8.30008C7.977 8.35564 7.82144 8.40008 7.66589 8.43341C7.51033 8.45564 7.35477 8.46675 7.19922 8.46675C6.42144 8.46675 5.76033 8.19453 5.21589 7.65008C4.67144 7.10564 4.39922 6.44453 4.39922 5.66675C4.39922 5.51119 4.41589 5.35564 4.44922 5.20008C4.49366 5.04453 4.53255 4.88897 4.56589 4.73341L3.21589 3.38341Z" fill="black"/>
</svg>
